<svg width="42" height="42" viewBox="0 0 42 42" fill="none" xmlns="http://www.w3.org/2000/svg">
<path d="M20.7051 0C23.5712 0 26.2643 0.54357 28.7845 1.63071C31.3047 2.71785 33.5037 4.20031 35.3815 6.0781C37.2593 7.95589 38.7417 10.1466 39.8289 12.6504C40.916 15.1541 41.4596 17.839 41.4596 20.7051C41.4596 23.5712 40.916 26.2643 39.8289 28.7845C38.7417 31.3047 37.2593 33.5037 35.3815 35.3815C33.5037 37.2593 31.3047 38.7417 28.7845 39.8289C26.2643 40.916 23.5712 41.4596 20.7051 41.4596C17.839 41.4596 15.1541 40.916 12.6504 39.8289C10.1466 38.7417 7.95589 37.2593 6.0781 35.3815C4.20031 33.5037 2.71785 31.3047 1.63071 28.7845C0.54357 26.2643 0 23.5712 0 20.7051C0 17.839 0.54357 15.1541 1.63071 12.6504C2.71785 10.1466 4.20031 7.95589 6.0781 6.0781C7.95589 4.20031 10.1466 2.71785 12.6504 1.63071C15.1541 0.54357 17.839 0 20.7051 0ZM28.5127 9.04303H24.1147C23.2582 9.04303 22.4676 9.19128 21.7428 9.48777C21.018 9.78426 20.3839 10.1796 19.8403 10.6737C19.2967 11.1679 18.8767 11.7279 18.5802 12.3539C18.2837 12.9798 18.1355 13.6057 18.1355 14.2317V16.8507H14.2317V21.9899H18.1355V32.3671H23.3241V21.9899H27.1785V16.8507H23.3241V15.5165C23.3241 15.1211 23.4806 14.8082 23.7935 14.5776C24.1065 14.347 24.3783 14.2317 24.6089 14.2317H28.5127V9.04303Z" fill="white"/>
</svg>
