<svg width="44" height="34" viewBox="0 0 44 34" fill="none" xmlns="http://www.w3.org/2000/svg">
<path d="M42.8014 7.3363C42.8014 7.3363 42.3815 4.00333 41.0881 2.53985C39.4504 0.613719 37.6196 0.604276 36.7797 0.490974C30.7665 -2.68221e-07 21.7381 0 21.7381 0H21.7213C21.7213 0 12.693 -2.68221e-07 6.67974 0.490974C5.83989 0.604276 4.00903 0.613719 2.37134 2.53985C1.07798 4.00333 0.666455 7.3363 0.666455 7.3363C0.666455 7.3363 0.229736 11.2547 0.229736 15.1636V18.827C0.229736 22.7359 0.658057 26.6543 0.658057 26.6543C0.658057 26.6543 1.07798 29.9872 2.36294 31.4507C4.00063 33.3768 6.15064 33.3107 7.10806 33.5185C10.5514 33.8867 21.7297 34 21.7297 34C21.7297 34 30.7665 33.9811 36.7797 33.4996C37.6196 33.3863 39.4504 33.3768 41.0881 31.4507C42.3815 29.9872 42.8014 26.6543 42.8014 26.6543C42.8014 26.6543 43.2297 22.7453 43.2297 18.827V15.1636C43.2297 11.2547 42.8014 7.3363 42.8014 7.3363ZM17.287 23.2741V9.68731L28.902 16.5043L17.287 23.2741Z" fill="white"/>
</svg>
