<svg width="43" height="42" viewBox="0 0 43 42" fill="none" xmlns="http://www.w3.org/2000/svg">
<path d="M28.5855 20.7546C28.5855 20.1932 28.5029 19.5823 28.3378 18.9218H30.4182V28.9276C30.4182 29.1918 30.3274 29.4064 30.1458 29.5715C29.9641 29.7366 29.7412 29.8192 29.4771 29.8192H13.1805C12.9164 29.8192 12.7017 29.7366 12.5366 29.5715C12.3715 29.4064 12.2889 29.1918 12.2889 28.9276V18.9218H14.3198C14.1547 19.5823 14.0721 20.1932 14.0721 20.7546C14.0721 21.7452 14.262 22.6864 14.6418 23.578C15.0215 24.4696 15.5416 25.2373 16.2021 25.8813C16.8625 26.5252 17.6385 27.0371 18.5302 27.4168C19.4218 27.7966 20.3629 27.9865 21.3536 27.9865C22.3442 27.9865 23.2854 27.7966 24.177 27.4168C25.0686 27.0371 25.8364 26.5252 26.4803 25.8813C27.1242 25.2373 27.6361 24.4696 28.0158 23.578C28.3956 22.6864 28.5855 21.7452 28.5855 20.7546ZM21.3536 25.2621C20.7261 25.2621 20.1317 25.1465 19.5704 24.9154C19.009 24.6842 18.5219 24.3622 18.1091 23.9495C17.6963 23.5367 17.3744 23.0579 17.1432 22.513C16.9121 21.9681 16.7965 21.382 16.7965 20.7546C16.7965 20.1271 16.9121 19.5327 17.1432 18.9713C17.3744 18.41 17.6963 17.9229 18.1091 17.5101C18.5219 17.0973 19.009 16.7754 19.5704 16.5442C20.1317 16.313 20.7261 16.1975 21.3536 16.1975C21.981 16.1975 22.5671 16.313 23.112 16.5442C23.6569 16.7754 24.1357 17.0973 24.5485 17.5101C24.9613 17.9229 25.2832 18.41 25.5144 18.9713C25.7455 19.5327 25.8611 20.1271 25.8611 20.7546C25.8611 21.382 25.7455 21.9681 25.5144 22.513C25.2832 23.0579 24.9613 23.5367 24.5485 23.9495C24.1357 24.3622 23.6569 24.6842 23.112 24.9154C22.5671 25.1465 21.981 25.2621 21.3536 25.2621ZM29.4771 11.6899C29.7412 11.6899 29.9641 11.7725 30.1458 11.9376C30.3274 12.1027 30.4182 12.3173 30.4182 12.5815V15.3059C30.4182 15.57 30.3274 15.7847 30.1458 15.9498C29.9641 16.1149 29.7412 16.1975 29.4771 16.1975H26.7527C26.4885 16.1975 26.2739 16.1149 26.1088 15.9498C25.9437 15.7847 25.8611 15.57 25.8611 15.3059V12.5815C25.8611 12.3173 25.9437 12.1027 26.1088 11.9376C26.2739 11.7725 26.4885 11.6899 26.7527 11.6899H29.4771ZM31.9042 0C33.3242 0 34.6698 0.272434 35.9412 0.817303C37.2126 1.36217 38.3188 2.10518 39.2599 3.04631C40.2011 3.98745 40.9441 5.08544 41.489 6.34029C42.0338 7.59514 42.3063 8.93255 42.3063 10.3525V31.0575C42.3063 32.4775 42.0338 33.8232 41.489 35.0945C40.9441 36.3659 40.2011 37.4721 39.2599 38.4133C38.3188 39.3544 37.2126 40.0974 35.9412 40.6423C34.6698 41.1871 33.3242 41.4596 31.9042 41.4596H11.1992C9.77923 41.4596 8.44182 41.1871 7.18697 40.6423C5.93212 40.0974 4.83413 39.3544 3.89299 38.4133C2.95186 37.4721 2.20885 36.3659 1.66398 35.0945C1.11911 33.8232 0.84668 32.4775 0.84668 31.0575V10.3525C0.84668 8.93255 1.11911 7.59514 1.66398 6.34029C2.20885 5.08544 2.95186 3.98745 3.89299 3.04631C4.83413 2.10518 5.93212 1.36217 7.18697 0.817303C8.44182 0.272434 9.77923 0 11.1992 0H31.9042ZM33.1425 11.6899C33.1425 10.9304 32.8784 10.2865 32.35 9.75811C31.8217 9.22975 31.1777 8.96557 30.4182 8.96557H12.2889C11.5294 8.96557 10.8855 9.22975 10.3571 9.75811C9.82876 10.2865 9.56458 10.9304 9.56458 11.6899V29.8192C9.56458 30.5787 9.82876 31.2226 10.3571 31.751C10.8855 32.2794 11.5294 32.5435 12.2889 32.5435H30.4182C31.1777 32.5435 31.8217 32.2794 32.35 31.751C32.8784 31.2226 33.1425 30.5787 33.1425 29.8192V11.6899Z" fill="white"/>
</svg>
