<svg width="42" height="44" viewBox="0 0 42 44" fill="none" xmlns="http://www.w3.org/2000/svg">
<path d="M21.165 0C24.0311 0 26.7243 0.565607 29.2445 1.69682C31.7647 2.82803 33.9636 4.3706 35.8414 6.32451C37.7192 8.27843 39.2017 10.558 40.2888 13.1632C41.376 15.7684 41.9195 18.5622 41.9195 21.5445C41.9195 24.5268 41.376 27.3291 40.2888 29.9514C39.2017 32.5738 37.7192 34.8619 35.8414 36.8159C33.9636 38.7698 31.7647 40.3123 29.2445 41.4436C26.7243 42.5748 24.0311 43.1404 21.165 43.1404C18.2989 43.1404 15.614 42.5748 13.1103 41.4436C10.6066 40.3123 8.41585 38.7698 6.53806 36.8159C4.66028 34.8619 3.17781 32.5738 2.09067 29.9514C1.00353 27.3291 0.459961 24.5268 0.459961 21.5445C0.459961 18.5622 1.00353 15.7684 2.09067 13.1632C3.17781 10.558 4.66028 8.27843 6.53806 6.32451C8.41585 4.3706 10.6066 2.82803 13.1103 1.69682C15.614 0.565607 18.2989 0 21.165 0ZM28.9727 9.40964H24.5747C23.7182 9.40964 22.9275 9.5639 22.2028 9.87241C21.478 10.1809 20.8438 10.5923 20.3003 11.1065C19.7567 11.6206 19.3367 12.2034 19.0402 12.8547C18.7437 13.506 18.5954 14.1573 18.5954 14.8086V17.5338H14.6916V22.8814H18.5954V33.6793H23.7841V22.8814H27.6385V17.5338H23.7841V16.1455C23.7841 15.7342 23.9405 15.4085 24.2535 15.1685C24.5665 14.9286 24.8383 14.8086 25.0689 14.8086H28.9727V9.40964Z" fill="url(#paint0_linear_266_2528)"/>
<defs>
<linearGradient id="paint0_linear_266_2528" x1="0.459961" y1="21.3723" x2="46.4839" y2="21.3723" gradientUnits="userSpaceOnUse">
<stop stop-color="#FF730E"/>
<stop offset="1" stop-color="#FFB83E"/>
</linearGradient>
</defs>
</svg>
