<svg width="44" height="37" viewBox="0 0 44 37" fill="none" xmlns="http://www.w3.org/2000/svg">
<path d="M43.0316 8.51469C43.0316 8.51469 42.6117 5.04661 41.3184 3.5238C39.6807 1.51958 37.8498 1.50976 37.01 1.39186C30.9967 0.880981 21.9684 0.880981 21.9684 0.880981H21.9516C21.9516 0.880981 12.9232 0.880981 6.90996 1.39186C6.07012 1.50976 4.23926 1.51958 2.60156 3.5238C1.3082 5.04661 0.89668 8.51469 0.89668 8.51469C0.89668 8.51469 0.459961 12.5919 0.459961 16.6593V20.4712C0.459961 24.5386 0.888281 28.6158 0.888281 28.6158C0.888281 28.6158 1.3082 32.0839 2.59316 33.6067C4.23086 35.6109 6.38086 35.5422 7.33828 35.7583C10.7816 36.1415 21.96 36.2594 21.96 36.2594C21.96 36.2594 30.9967 36.2397 37.01 35.7387C37.8498 35.6208 39.6807 35.6109 41.3184 33.6067C42.6117 32.0839 43.0316 28.6158 43.0316 28.6158C43.0316 28.6158 43.46 24.5484 43.46 20.4712V16.6593C43.46 12.5919 43.0316 8.51469 43.0316 8.51469ZM17.5172 25.0986V10.961L29.1322 18.0544L17.5172 25.0986Z" fill="url(#paint0_linear_266_2526)"/>
<defs>
<linearGradient id="paint0_linear_266_2526" x1="0.459961" y1="18.4079" x2="48.1939" y2="18.4079" gradientUnits="userSpaceOnUse">
<stop stop-color="#FF730E"/>
<stop offset="1" stop-color="#FFB83E"/>
</linearGradient>
</defs>
</svg>
