<svg width="42" height="44" viewBox="0 0 42 44" fill="none" xmlns="http://www.w3.org/2000/svg">
<path d="M27.7388 21.596C27.7388 21.0118 27.6562 20.3761 27.4911 19.6889H29.5715V30.1003C29.5715 30.3752 29.4807 30.5986 29.2991 30.7704C29.1175 30.9422 28.8946 31.0281 28.6304 31.0281H12.3339C12.0697 31.0281 11.855 30.9422 11.6899 30.7704C11.5248 30.5986 11.4422 30.3752 11.4422 30.1003V19.6889H13.4731C13.308 20.3761 13.2255 21.0118 13.2255 21.596C13.2255 22.6268 13.4153 23.6061 13.7951 24.5338C14.1748 25.4616 14.695 26.2605 15.3554 26.9305C16.0158 27.6006 16.7919 28.1332 17.6835 28.5283C18.5751 28.9235 19.5162 29.121 20.5069 29.121C21.4976 29.121 22.4387 28.9235 23.3303 28.5283C24.2219 28.1332 24.9897 27.6006 25.6336 26.9305C26.2775 26.2605 26.7894 25.4616 27.1691 24.5338C27.5489 23.6061 27.7388 22.6268 27.7388 21.596ZM20.5069 26.2862C19.8795 26.2862 19.2851 26.166 18.7237 25.9255C18.1623 25.6849 17.6752 25.3499 17.2624 24.9204C16.8497 24.4909 16.5277 23.9926 16.2965 23.4257C16.0654 22.8587 15.9498 22.2488 15.9498 21.596C15.9498 20.9431 16.0654 20.3246 16.2965 19.7405C16.5277 19.1563 16.8497 18.6495 17.2624 18.22C17.6752 17.7905 18.1623 17.4554 18.7237 17.2149C19.2851 16.9744 19.8795 16.8541 20.5069 16.8541C21.1343 16.8541 21.7205 16.9744 22.2653 17.2149C22.8102 17.4554 23.289 17.7905 23.7018 18.22C24.1146 18.6495 24.4365 19.1563 24.6677 19.7405C24.8989 20.3246 25.0144 20.9431 25.0144 21.596C25.0144 22.2488 24.8989 22.8587 24.6677 23.4257C24.4365 23.9926 24.1146 24.4909 23.7018 24.9204C23.289 25.3499 22.8102 25.6849 22.2653 25.9255C21.7205 26.166 21.1343 26.2862 20.5069 26.2862ZM28.6304 12.1638C28.8946 12.1638 29.1175 12.2497 29.2991 12.4215C29.4807 12.5933 29.5715 12.8167 29.5715 13.0916V15.9264C29.5715 16.2013 29.4807 16.4246 29.2991 16.5964C29.1175 16.7682 28.8946 16.8541 28.6304 16.8541H25.906C25.6419 16.8541 25.4272 16.7682 25.2621 16.5964C25.097 16.4246 25.0144 16.2013 25.0144 15.9264V13.0916C25.0144 12.8167 25.097 12.5933 25.2621 12.4215C25.4272 12.2497 25.6419 12.1638 25.906 12.1638H28.6304ZM31.0575 0C32.4775 0 33.8232 0.283479 35.0945 0.850437C36.3659 1.4174 37.4721 2.19052 38.4133 3.16981C39.3544 4.1491 40.0974 5.29161 40.6423 6.59733C41.1871 7.90305 41.4596 9.29468 41.4596 10.7722V32.3166C41.4596 33.7941 41.1871 35.1944 40.6423 36.5173C40.0974 37.8402 39.3544 38.9913 38.4133 39.9706C37.4721 40.9498 36.3659 41.723 35.0945 42.2899C33.8232 42.8569 32.4775 43.1404 31.0575 43.1404H10.3525C8.93255 43.1404 7.59514 42.8569 6.34029 42.2899C5.08544 41.723 3.98745 40.9498 3.04631 39.9706C2.10518 38.9913 1.36217 37.8402 0.817303 36.5173C0.272434 35.1944 0 33.7941 0 32.3166V10.7722C0 9.29468 0.272434 7.90305 0.817303 6.59733C1.36217 5.29161 2.10518 4.1491 3.04631 3.16981C3.98745 2.19052 5.08544 1.4174 6.34029 0.850437C7.59514 0.283479 8.93255 0 10.3525 0H31.0575ZM32.2959 12.1638C32.2959 11.3735 32.0317 10.7035 31.5033 10.1537C30.975 9.60393 30.331 9.32904 29.5715 9.32904H11.4422C10.6827 9.32904 10.0388 9.60393 9.51044 10.1537C8.98208 10.7035 8.7179 11.3735 8.7179 12.1638V31.0281C8.7179 31.8184 8.98208 32.4884 9.51044 33.0382C10.0388 33.588 10.6827 33.8629 11.4422 33.8629H29.5715C30.331 33.8629 30.975 33.588 31.5033 33.0382C32.0317 32.4884 32.2959 31.8184 32.2959 31.0281V12.1638Z" fill="url(#paint0_linear_266_2525)"/>
<defs>
<linearGradient id="paint0_linear_266_2525" x1="2.42788e-07" y1="21.3723" x2="46.0239" y2="21.3723" gradientUnits="userSpaceOnUse">
<stop stop-color="#FF730E"/>
<stop offset="1" stop-color="#FFB83E"/>
</linearGradient>
</defs>
</svg>
